<?xml version="1.0" encoding="UTF-8" standalone="no"?>
<!-- Created with Inkscape (http://www.inkscape.org/) -->

<svg
   width="106.95303mm"
   height="61.257874mm"
   viewBox="0 0 106.95303 61.257874"
   version="1.1"
   id="svg457"
   inkscape:version="1.2.2 (732a01da63, 2022-12-09, custom)"
   sodipodi:docname="here2_no_words"
   xmlns:inkscape="http://www.inkscape.org/namespaces/inkscape"
   xmlns:sodipodi="http://sodipodi.sourceforge.net/DTD/sodipodi-0.dtd"
   xmlns="http://www.w3.org/2000/svg"
   xmlns:svg="http://www.w3.org/2000/svg">
  <sodipodi:namedview
     id="namedview459"
     pagecolor="#ffffff"
     bordercolor="#000000"
     borderopacity="0.25"
     inkscape:showpageshadow="2"
     inkscape:pageopacity="0.0"
     inkscape:pagecheckerboard="0"
     inkscape:deskcolor="#d1d1d1"
     inkscape:document-units="mm"
     showgrid="false"
     inkscape:zoom="0.50244108"
     inkscape:cx="566.23555"
     inkscape:cy="410.99347"
     inkscape:window-width="1299"
     inkscape:window-height="704"
     inkscape:window-x="0"
     inkscape:window-y="27"
     inkscape:window-maximized="1"
     inkscape:current-layer="layer1" />
  <defs
     id="defs454" />
  <g
     inkscape:label="Layer 1"
     inkscape:groupmode="layer"
     id="layer1"
     transform="translate(-39.271476,-40.248684)">
    <g
       id="g812"
       transform="translate(-3.6010637,-38.64276)"
       style="fill:#4d4d4d;fill-opacity:1">
      <path
         fill="#27373e"
         d="m 52.167517,93.197072 -0.08731,11.509368 a 0.88106249,0.88106249 0 0 1 -0.883708,0.87313 l -7.278688,-0.0238 q -0.957791,-0.003 -0.955145,-0.96043 0.02646,-11.879788 0.01058,-23.905108 c 0,-0.93133 0.0026,-2.04258 1.375833,-1.75154 q 0.687917,0.14288 1.502834,0.54504 c 12.771437,6.29179 25.632833,12.39309 38.409562,18.68223 a 0.20902083,0.20902083 0 0 1 0.05027,0.34131 q -3.299354,3.040068 -4.601104,7.339548 a 0.2460625,0.24870833 20.6 0 1 -0.338666,0.15345 Q 65.814725,99.716402 52.453267,93.022442 a 0.19579166,0.1984375 13.6 0 0 -0.28575,0.17463 z"
         id="path236"
         style="fill:#4d4d4d;fill-opacity:1;stroke-width:0.264583" />
      <path
         fill="#27373e"
         d="m 140.74208,93.223532 a 0.12964583,0.127 78.1 0 0 -0.17991,-0.11907 c -8.99055,4.10369 -17.72709,8.739188 -26.74409,12.776728 q -0.46302,0.20638 -0.64558,-0.26458 -1.52665,-3.937 -4.4159,-7.019398 a 0.2619375,0.2619375 0 0 1 0.0794,-0.41539 c 2.73314,-1.29646 5.77585,-2.88396 8.13858,-4.03754 q 14.66321,-7.14905 29.30261,-14.34571 c 0.57679,-0.28575 1.44991,-0.78846 2.06904,-0.88107 0.89164,-0.13229 1.41816,0.58473 1.42346,1.44198 q 0.0688,12.03855 0.0529,24.135298 -0.003,1.05304 -1.05569,1.05304 -3.44222,-0.005 -6.87916,-0.0212 -1.28323,-0.005 -1.26736,-1.28852 0.0741,-5.537728 0.12171,-11.014598 z"
         id="path238"
         style="fill:#4d4d4d;fill-opacity:1;stroke-width:0.264583" />
      <ellipse
         fill="#27373e"
         cx="145.49345"
         cy="17.387999"
         transform="rotate(42)"
         rx="8.5275202"
         ry="8.493124"
         id="ellipse240"
         style="fill:#4d4d4d;fill-opacity:1;stroke-width:0.264583" />
      <path
         fill="#27373e"
         d="m 75.860954,124.94442 q -13.697479,6.55108 -27.289125,13.32706 -2.616729,1.3044 -3.727979,1.73302 c -1.703917,0.65617 -1.979083,-1.05568 -1.971146,-2.36273 q 0.06879,-11.557 0.0635,-23.12458 c 0.142875,-0.56356 0.07144,-1.08744 0.849313,-1.1086 q 4.212166,-0.10584 7.278687,-0.0344 1.153584,0.0265 1.135063,1.21709 -0.08996,5.57212 -0.05821,11.28712 0.0026,0.24871 0.22225,0.13229 1.471084,-0.77523 3.037417,-1.53987 11.117791,-5.41073 22.275271,-10.74209 0.841375,-0.40216 1.706562,-0.76729 a 0.333375,0.333375 0 0 1 0.449792,0.21431 q 1.185333,4.191 4.167187,7.37394 0.113771,0.11906 -0.03175,0.19315 z"
         id="path242"
         style="fill:#4d4d4d;fill-opacity:1;stroke-width:0.264583" />
      <path
         fill="#27373e"
         d="m 140.69446,125.88634 q 0.0265,-5.34723 -0.0794,-10.73415 c -0.0132,-0.69585 0.12965,-1.78594 1.05834,-1.79387 q 3.70681,-0.0265 7.31043,0 a 0.78316666,0.78316666 0 0 1 0.77523,0.77523 q 0.0952,12.19729 0.0397,24.50041 c -0.005,1.03188 -0.8255,1.84944 -1.88648,1.37054 -1.53723,-0.6932 -3.25967,-1.61395 -4.52702,-2.2225 q -16.98625,-8.16504 -33.87725,-16.52323 -0.31485,-0.1561 -0.55563,-0.29368 a 0.21960416,0.22225 36.4 0 1 -0.0503,-0.34132 c 0.53182,-0.57414 1.10861,-1.10331 1.53723,-1.73831 q 1.76742,-2.62731 2.72257,-5.69118 0.11906,-0.381 0.47625,-0.20903 l 26.97691,12.954 a 0.0555625,0.05820833 12.7 0 0 0.0794,-0.0529 z"
         id="path244"
         style="fill:#4d4d4d;fill-opacity:1;stroke-width:0.264583" />
    </g>
  </g>
</svg>
